<svg version="1.2" xmlns="http://www.w3.org/2000/svg" viewBox="0 0 55 55" width="32" height="32">
	<title>Neues Projekt</title>
	<style>
		.s0 { fill: none;stroke: #e7e4da;stroke-width: 4 } 
		.s1 { fill: #e7e4da } 
	</style>
	<path id="Circle 1" class="s0" d="m27.3 3c13.5 0 24.4 11 24.4 24.5 0 13.5-10.9 24.5-24.4 24.5-13.4 0-24.3-11-24.3-24.5 0-13.5 10.9-24.5 24.3-24.5z"/>
	<path id="Facebook" class="s1" d="m24.9 40.1v-11.5h-3.5v-4.5h3.5v-3.3c0-3.9 2.1-5.9 5.2-5.9 1.5 0 2.8 0.1 3.1 0.1v4h-2.1c-1.7 0-2 0.9-2 2.2v2.9h4l-0.5 4.5h-3.5v11.5z"/>
</svg>