<svg version="1.2" xmlns="http://www.w3.org/2000/svg" viewBox="0 0 55 55" width="32" height="32">
	<title>Neues Projekt</title>
	<style>
		.s0 { fill: none;stroke: #e7e4da;stroke-width: 4 } 
		.s1 { fill: #e7e3d9 } 
	</style>
	<path id="Circle 2" class="s0" d="m26.9 3c13.5 0 24.4 11 24.4 24.5 0 13.5-10.9 24.5-24.4 24.5-13.4 0-24.3-11-24.3-24.5 0-13.5 10.9-24.5 24.3-24.5z"/>
	<path id="Instagram" fill-rule="evenodd" class="s1" d="m30.9 27.5c0 2.2-1.8 3.9-4 3.9-2.2 0-3.9-1.7-3.9-3.9 0-2.2 1.7-4 3.9-4 2.2 0 4 1.8 4 4zm6.4-4.4v8.7c0 3.4-2.7 6.1-6 6.1h-8.7c-3.3 0-6-2.7-6-6.1v-8.7c0-3.3 2.7-6 6-6h8.7c3.3 0 6 2.7 6 6zm-4.8 4.4c0-3.1-2.5-5.6-5.6-5.6-3 0-5.5 2.5-5.5 5.6 0 3.1 2.5 5.6 5.5 5.6 3.1 0 5.6-2.5 5.6-5.6zm1.8-6.3c0-0.8-0.6-1.4-1.4-1.4-0.8 0-1.4 0.6-1.4 1.4 0 0.8 0.6 1.4 1.4 1.4 0.8 0 1.4-0.6 1.4-1.4z"/>
</svg>