<svg version="1.2" xmlns="http://www.w3.org/2000/svg" viewBox="0 0 55 55" width="32" height="32">
	<title>Neues Projekt</title>
	<style>
		.s0 { fill: none;stroke: #e7e4da;stroke-width: 4 } 
		.s1 { fill: #e4e1d7 } 
	</style>
	<path id="Circle 3" class="s0" d="m27.6 3c13.5 0 24.4 11 24.4 24.5 0 13.5-10.9 24.5-24.4 24.5-13.4 0-24.3-11-24.3-24.5 0-13.5 10.9-24.5 24.3-24.5z"/>
	<path id="Youtube" fill-rule="evenodd" class="s1" d="m40.9 27.9c0 0 0 4.3-0.5 6.3-0.4 1.2-1.3 2.1-2.4 2.4-2.1 0.5-10.4 0.5-10.4 0.5 0 0-8.3 0-10.4-0.5-1.1-0.4-2-1.2-2.3-2.4-0.6-2-0.6-6.4-0.6-6.4 0 0 0-4.3 0.6-6.3 0.3-1.2 1.2-2.1 2.3-2.4 2.1-0.5 10.4-0.5 10.4-0.5 0 0 8.3 0 10.4 0.5 1.1 0.3 2 1.2 2.4 2.4 0.5 2 0.5 6.4 0.5 6.4zm-15.9 3.9v-7.9l6.9 3.9z"/>
</svg>